<svg width="170" height="29" viewBox="0 0 170 29" fill="none" xmlns="http://www.w3.org/2000/svg">
<g clip-path="url(#clip0_357_9547)">
<path d="M27.9432 0V4.71249C27.9432 8.27606 25.5519 11.2746 22.2923 12.1868V5.29327H15.9114C16.9371 2.21894 19.8349 0 23.2456 0H27.9401H27.9432Z" fill="#AA6C39"/>
<path d="M12.0853 22.5871C11.1036 25.7403 8.16805 28.0319 4.69758 28.0319H0V23.3225C0 19.9799 2.10494 17.136 5.05312 16.0376V22.5871H12.0853Z" fill="#AA6C39"/>
<path d="M12.4346 7.76472V12.4741H7.737C6.79308 12.4741 5.88691 12.3068 5.05312 11.9943C2.10494 10.899 0 8.05195 0 4.71249V0H4.69758C8.11142 0 11.0093 2.21894 12.035 5.29327C12.2961 6.06974 12.4346 6.89987 12.4346 7.76472Z" fill="#AA6C39"/>
<path d="M27.9431 23.3226V28.0319H23.2455C19.7782 28.0319 16.8426 25.7404 15.8609 22.5871C15.6313 21.8549 15.5085 21.0752 15.5085 20.2704V15.5579H20.2061C20.9266 15.5579 21.6283 15.6557 22.2922 15.8451C25.5519 16.7573 27.9431 19.759 27.9431 23.3226Z" fill="#AA6C39"/>
<path d="M58.4633 2.28198H59.6338V25.7876C56.5 25.7876 53.5392 24.3452 51.601 21.8769L41.6112 9.15976V22.0883C41.6112 24.1305 39.9594 25.7876 37.9236 25.7876H36.7532V2.28198H36.7721C39.8933 2.28198 42.8446 3.71183 44.7859 6.1675L54.7758 18.8057V5.98127C54.7758 3.93909 56.4276 2.28198 58.4633 2.28198Z" fill="#AA6C39"/>
<path d="M84.805 10.1983V18.0451C84.805 23.1616 79.9815 26.1349 73.8807 26.1349C67.7798 26.1349 62.991 23.1268 62.991 18.0451V10.1983C62.991 5.08175 67.8144 1.93799 73.8807 1.93799C79.9469 1.93799 84.805 5.08491 84.805 10.1983ZM79.5662 10.476C79.5662 7.74575 76.7061 6.25909 73.8807 6.25909C70.5046 6.25909 68.2297 7.78047 68.2297 10.476V17.7357C68.2297 20.5007 70.6776 21.8485 73.8807 21.8485C77.0837 21.8485 79.5662 20.5007 79.5662 17.7357V10.476Z" fill="white"/>
<path d="M91.9821 6.60308H87.2625V2.28198H92.4477C95.1033 2.28198 97.2554 4.44095 97.2554 7.10495V25.7908H91.9821V6.60308Z" fill="white"/>
<path d="M122.984 2.28198C122.984 4.28945 122.266 6.23063 120.957 7.74885L109.199 21.4318H118.572C120.97 21.4318 122.914 23.3825 122.914 25.7876H101.962V25.7813C101.962 23.7581 102.692 21.8011 104.02 20.2766L115.851 6.67252H106.477C104.08 6.67252 102.135 4.72187 102.135 2.3167V2.28198H122.984Z" fill="#AA6C39"/>
<path d="M131.419 15.9365V21.5013H145.169V25.7876H130.777C128.238 25.7876 126.18 23.7234 126.18 21.1761V6.89347C126.18 4.34626 128.238 2.28198 130.777 2.28198H144.445V6.60308H131.419V11.7543H142.343V15.9365H131.419Z" fill="#AA6C39"/>
<path d="M147.088 6.6378C147.088 4.23263 149.033 2.28198 151.43 2.28198H170.003C170.003 4.68715 168.059 6.6378 165.661 6.6378H161.077V25.7876H155.838V6.6378H147.085H147.088Z" fill="#AA6C39"/>
</g>
<defs>
<clipPath id="clip0_357_9547">
<rect width="170" height="28.0319" fill="white"/>
</clipPath>
</defs>
</svg>
