<svg width="12" height="13" viewBox="0 0 12 13" fill="none" xmlns="http://www.w3.org/2000/svg">
<path d="M6.65625 8.75C6.65625 8.82459 6.62662 8.89613 6.57388 8.94887C6.52113 9.00162 6.44959 9.03125 6.375 9.03125C6.20095 9.03125 6.03403 8.96211 5.91096 8.83904C5.78789 8.71597 5.71875 8.54905 5.71875 8.375V6.5C5.71875 6.47514 5.70888 6.45129 5.69129 6.43371C5.67371 6.41613 5.64987 6.40625 5.625 6.40625C5.55041 6.40625 5.47887 6.37662 5.42613 6.32387C5.37338 6.27113 5.34375 6.19959 5.34375 6.125C5.34375 6.05041 5.37338 5.97887 5.42613 5.92613C5.47887 5.87338 5.55041 5.84375 5.625 5.84375C5.79905 5.84375 5.96597 5.91289 6.08904 6.03596C6.21211 6.15903 6.28125 6.32595 6.28125 6.5V8.375C6.28125 8.39986 6.29113 8.42371 6.30871 8.44129C6.32629 8.45887 6.35014 8.46875 6.375 8.46875C6.44959 8.46875 6.52113 8.49838 6.57388 8.55113C6.62662 8.60387 6.65625 8.67541 6.65625 8.75ZM5.8125 4.90625C5.90521 4.90625 5.99584 4.87876 6.07293 4.82725C6.15001 4.77574 6.21009 4.70254 6.24557 4.61688C6.28105 4.53123 6.29033 4.43698 6.27224 4.34605C6.25416 4.25512 6.20951 4.1716 6.14396 4.10604C6.0784 4.04049 5.99488 3.99584 5.90395 3.97776C5.81302 3.95967 5.71877 3.96895 5.63312 4.00443C5.54747 4.03991 5.47426 4.09999 5.42275 4.17708C5.37124 4.25416 5.34375 4.34479 5.34375 4.4375C5.34375 4.56182 5.39314 4.68105 5.48105 4.76896C5.56895 4.85686 5.68818 4.90625 5.8125 4.90625ZM10.7813 6.5C10.7813 7.44564 10.5008 8.37005 9.97547 9.15632C9.4501 9.94259 8.70337 10.5554 7.82971 10.9173C6.95605 11.2792 5.9947 11.3739 5.06723 11.1894C4.13975 11.0049 3.28782 10.5495 2.61915 9.88085C1.95048 9.21218 1.49511 8.36025 1.31062 7.43278C1.12614 6.5053 1.22082 5.54395 1.5827 4.6703C1.94458 3.79664 2.55741 3.04991 3.34368 2.52454C4.12995 1.99917 5.05436 1.71875 6 1.71875C7.26761 1.72024 8.48288 2.22445 9.37921 3.12079C10.2755 4.01713 10.7798 5.23239 10.7813 6.5ZM10.2188 6.5C10.2188 5.66561 9.97133 4.84996 9.50776 4.15619C9.0442 3.46242 8.38532 2.92169 7.61445 2.60238C6.84357 2.28308 5.99532 2.19953 5.17696 2.36231C4.35861 2.52509 3.6069 2.92689 3.0169 3.51689C2.42689 4.1069 2.0251 4.85861 1.86231 5.67696C1.69953 6.49532 1.78308 7.34357 2.10239 8.11445C2.42169 8.88532 2.96242 9.5442 3.65619 10.0078C4.34996 10.4713 5.16561 10.7188 6 10.7188C7.1185 10.7175 8.19084 10.2726 8.98174 9.48174C9.77264 8.69084 10.2175 7.6185 10.2188 6.5Z" fill="#ABABAB"/>
</svg>
